<?xml version="1.0" encoding="UTF-8"?>
<svg id="Capa_2" xmlns="http://www.w3.org/2000/svg" viewBox="0 0 499.41 46.21">
  <defs>
    <style>
      .cls-1 {
        fill: #00ffd4;
      }

      .cls-2 {
        fill: #fafafa;
      }

      .cls-3 {
        fill: #4a00ff;
      }
    </style>
  </defs>
  <g id="Capa_1-2" data-name="Capa_1">
    <g>
      <g>
        <path class="cls-2" d="M0,6.5h2.39l4,10.5c.36.93.68,1.86,1.02,3.09.39-1.3.77-2.39,1.04-3.11l3.98-10.47h2.32l-6.18,16.43h-2.32L0,6.5Z"/>
        <path class="cls-2" d="M16.16,7.77c0-.8.64-1.41,1.41-1.41s1.41.61,1.41,1.41-.64,1.41-1.41,1.41-1.41-.64-1.41-1.41ZM16.52,11.81h2.14v11.11h-2.14v-11.11Z"/>
        <path class="cls-2" d="M22.88,19.7c0,1.14.86,1.82,2.27,1.82,1.5,0,2.36-.61,2.36-1.64,0-.75-.36-1.2-1.52-1.5l-1.95-.45c-1.98-.48-2.91-1.45-2.91-3.09,0-2.04,1.73-3.34,4.18-3.34s4.02,1.36,4.07,3.48h-2.04c-.04-1.11-.79-1.82-2.09-1.82s-2.09.59-2.09,1.61c0,.75.54,1.25,1.64,1.52l1.95.48c1.89.45,2.82,1.32,2.82,2.98,0,2.11-1.82,3.45-4.45,3.45s-4.27-1.39-4.27-3.5h2.04Z"/>
        <path class="cls-2" d="M41.72,11.81v11.11h-1.91l-.23-1.68c-.64,1.16-2.11,1.95-3.75,1.95-2.59,0-4.04-1.75-4.04-4.48v-6.91h2.14v6.2c0,2.39,1.02,3.29,2.66,3.29,1.95,0,3.02-1.25,3.02-3.64v-5.86h2.11Z"/>
        <path class="cls-2" d="M44.27,19.83c0-2.04,1.52-3.32,4.13-3.52l3.5-.27v-.32c0-1.86-1.11-2.52-2.61-2.52-1.79,0-2.82.79-2.82,2.14h-1.86c0-2.32,1.91-3.84,4.77-3.84s4.61,1.45,4.61,4.45v6.98h-1.82l-.23-1.79c-.57,1.27-2.09,2.07-3.88,2.07-2.39,0-3.79-1.34-3.79-3.36ZM51.92,18.13v-.59l-2.84.23c-1.89.18-2.66.91-2.66,2,0,1.18.86,1.77,2.25,1.77,2.02,0,3.25-1.32,3.25-3.41Z"/>
        <path class="cls-2" d="M56.99,22.92V6.2h2.14v16.72h-2.14Z"/>
        <path class="cls-2" d="M61.9,7.77c0-.8.64-1.41,1.41-1.41s1.41.61,1.41,1.41-.64,1.41-1.41,1.41-1.41-.64-1.41-1.41ZM62.26,11.81h2.14v11.11h-2.14v-11.11Z"/>
        <path class="cls-2" d="M66.81,22.92v-1.73l6-7.59h-6v-1.79h8.66v1.75l-6.04,7.57h6.04v1.79h-8.66Z"/>
        <path class="cls-2" d="M77.33,19.83c0-2.04,1.52-3.32,4.13-3.52l3.5-.27v-.32c0-1.86-1.11-2.52-2.61-2.52-1.79,0-2.82.79-2.82,2.14h-1.86c0-2.32,1.91-3.84,4.77-3.84s4.61,1.45,4.61,4.45v6.98h-1.82l-.23-1.79c-.57,1.27-2.09,2.07-3.88,2.07-2.39,0-3.79-1.34-3.79-3.36ZM84.99,18.13v-.59l-2.84.23c-1.89.18-2.66.91-2.66,2,0,1.18.86,1.77,2.25,1.77,2.02,0,3.25-1.32,3.25-3.41Z"/>
        <path class="cls-2" d="M90.37,25.24v-.95c.93-.16,1.59-.77,1.59-1.48-.16.09-.34.14-.61.14-.75,0-1.39-.55-1.39-1.39,0-.91.61-1.57,1.52-1.57.95,0,1.73.8,1.73,2.04,0,1.64-1.23,3-2.84,3.2Z"/>
        <path class="cls-1" d="M101.71,17.36c0-3.5,2.04-6,5.43-6,1.57,0,2.95.66,3.66,1.77v-7.11h2.75v16.9h-2.54l-.18-1.75c-.68,1.29-2.14,2.04-3.84,2.04-3.25,0-5.27-2.39-5.27-5.86ZM110.78,17.27c0-2.02-1.25-3.43-3.18-3.43s-3.11,1.43-3.11,3.43,1.18,3.41,3.11,3.41,3.18-1.39,3.18-3.41Z"/>
        <path class="cls-1" d="M116.12,7.77c0-.93.75-1.66,1.7-1.66s1.66.73,1.66,1.66-.75,1.68-1.66,1.68c-.95,0-1.7-.75-1.7-1.68ZM116.44,11.7h2.77v11.22h-2.77v-11.22Z"/>
        <path class="cls-1" d="M123.85,19.52c.02.98.75,1.59,2.02,1.59s2-.52,2-1.34c0-.57-.29-.98-1.29-1.2l-2.02-.48c-2.02-.45-3-1.41-3-3.2,0-2.2,1.86-3.52,4.45-3.52s4.23,1.45,4.25,3.64h-2.63c-.02-.95-.66-1.57-1.73-1.57s-1.73.5-1.73,1.34c0,.64.5,1.05,1.45,1.27l2.02.48c1.89.43,2.84,1.29,2.84,3.02,0,2.27-1.93,3.68-4.7,3.68s-4.57-1.5-4.57-3.7h2.63Z"/>
        <path class="cls-1" d="M132.6,11.7h2.57l.18,1.7c.68-1.29,2.16-2.04,3.86-2.04,3.16,0,5.25,2.29,5.25,5.82s-1.91,6.04-5.25,6.04c-1.68,0-3.14-.66-3.84-1.79v6.7h-2.77V11.7ZM138.55,20.72c1.95,0,3.11-1.41,3.11-3.41s-1.16-3.43-3.11-3.43-3.16,1.41-3.16,3.43,1.25,3.41,3.16,3.41Z"/>
        <path class="cls-1" d="M153.96,17.31c0-3.52,2.29-5.95,5.59-5.95s5.5,2.25,5.5,5.75v.84l-8.45.02c.2,1.98,1.25,2.98,3.09,2.98,1.52,0,2.52-.59,2.84-1.66h2.57c-.48,2.45-2.52,3.93-5.45,3.93-3.34,0-5.68-2.43-5.68-5.91ZM156.66,16.2h5.63c0-1.54-1.07-2.57-2.73-2.57s-2.64.89-2.91,2.57Z"/>
        <path class="cls-1" d="M182.27,14.22h-1.02c-2,0-3.25,1.07-3.25,3.25v5.45h-2.77v-11.2h2.61l.16,1.64c.48-1.11,1.54-1.86,3.04-1.86.39,0,.77.05,1.23.16v2.57Z"/>
        <path class="cls-1" d="M193.88,19.52c.02.98.75,1.59,2.02,1.59s2-.52,2-1.34c0-.57-.29-.98-1.29-1.2l-2.02-.48c-2.02-.45-3-1.41-3-3.2,0-2.2,1.86-3.52,4.45-3.52s4.23,1.45,4.25,3.64h-2.63c-.02-.95-.66-1.57-1.73-1.57s-1.73.5-1.73,1.34c0,.64.5,1.05,1.45,1.27l2.02.48c1.89.43,2.84,1.29,2.84,3.02,0,2.27-1.93,3.68-4.7,3.68s-4.57-1.5-4.57-3.7h2.63Z"/>
        <path class="cls-1" d="M214.63,19.72c0-2.07,1.5-3.36,4.16-3.57l3.36-.25v-.25c0-1.52-.91-2.14-2.32-2.14-1.64,0-2.54.68-2.54,1.86h-2.36c0-2.43,2-4.02,5.04-4.02s4.88,1.64,4.88,4.75v6.82h-2.43l-.2-1.66c-.48,1.16-2,1.95-3.75,1.95-2.39,0-3.84-1.39-3.84-3.5ZM222.17,18.38v-.59l-2.34.18c-1.73.16-2.39.73-2.39,1.64,0,1.02.68,1.52,1.93,1.52,1.7,0,2.79-1.02,2.79-2.75Z"/>
        <path class="cls-2" d="M240.56,25.24v-.95c.93-.16,1.59-.77,1.59-1.48-.16.09-.34.14-.61.14-.75,0-1.39-.55-1.39-1.39,0-.91.61-1.57,1.52-1.57.95,0,1.73.8,1.73,2.04,0,1.64-1.23,3-2.84,3.2Z"/>
      </g>
      <g>
        <rect class="cls-2" x="252.3" width="132.53" height="31.78"/>
        <path class="cls-2" d="M498.41,1v29.78h-112.58V1h112.58M499.41,0h-114.58v31.78h114.58V0h0Z"/>
        <g>
          <path class="cls-3" d="M265.71,11.5c2.79,0,4.75,1.59,5.13,4.07h-2.14c-.36-1.41-1.5-2.16-2.93-2.16-2.02,0-3.41,1.55-3.41,3.95s1.29,3.93,3.32,3.93c1.52,0,2.66-.8,3.04-2.11h2.14c-.43,2.41-2.5,4.02-5.18,4.02-3.27,0-5.43-2.32-5.43-5.82s2.2-5.88,5.45-5.88Z"/>
          <path class="cls-3" d="M278.18,11.52c3.32,0,5.77,2.41,5.77,5.84s-2.45,5.84-5.77,5.84-5.79-2.41-5.79-5.84,2.45-5.84,5.79-5.84ZM278.18,21.29c2.14,0,3.64-1.61,3.64-3.93s-1.5-3.93-3.64-3.93-3.63,1.61-3.63,3.93,1.48,3.93,3.63,3.93Z"/>
          <path class="cls-3" d="M286.32,22.92v-11.11h1.91l.21,1.45c.57-1.04,1.75-1.77,3.32-1.77,1.73,0,2.95.86,3.52,2.25.52-1.39,1.86-2.25,3.59-2.25,2.54,0,4.09,1.59,4.09,4.16v7.27h-2.09v-6.75c0-1.75-.98-2.75-2.48-2.75-1.61,0-2.68,1.14-2.68,2.91v6.59h-2.11v-6.77c0-1.75-.95-2.7-2.45-2.7-1.61,0-2.68,1.11-2.68,2.89v6.59h-2.14Z"/>
          <path class="cls-3" d="M305.91,11.81h1.93l.16,2c.75-1.52,2.25-2.32,4.02-2.32,3.18,0,5.16,2.39,5.16,5.79s-1.86,5.93-5.16,5.93c-1.77,0-3.25-.75-3.98-2.11v6.79h-2.14V11.81ZM311.57,21.29c2.18,0,3.48-1.64,3.48-3.91s-1.29-3.93-3.48-3.93-3.5,1.61-3.5,3.93,1.32,3.91,3.5,3.91Z"/>
          <path class="cls-3" d="M325.9,13.68h-.95c-2.02,0-3.27,1.23-3.27,3.36v5.88h-2.14v-11.09h2l.14,1.68c.45-1.16,1.57-1.93,3.09-1.93.39,0,.7.05,1.14.14v1.95Z"/>
          <path class="cls-3" d="M326.77,17.38c0-3.48,2.2-5.88,5.43-5.88s5.23,2.18,5.23,5.48v.79l-8.59.02c.16,2.34,1.39,3.64,3.5,3.64,1.66,0,2.75-.68,3.11-1.95h2c-.54,2.39-2.41,3.73-5.16,3.73-3.27,0-5.52-2.36-5.52-5.82ZM328.88,16.36h6.41c0-1.84-1.2-3.07-3.09-3.07s-3.04,1.11-3.32,3.07Z"/>
          <path class="cls-3" d="M339.81,22.92v-11.11h1.93l.23,1.7c.71-1.27,2.11-2.02,3.68-2.02,2.93,0,4.27,1.79,4.27,4.63v6.79h-2.14v-6.32c0-2.25-1.04-3.16-2.68-3.16-2,0-3.16,1.43-3.16,3.59v5.88h-2.14Z"/>
          <path class="cls-3" d="M352.15,17.4c0-3.41,1.98-5.91,5.27-5.91,1.7,0,3.14.75,3.89,2.11v-7.41h2.11v16.72h-1.91l-.18-2.02c-.73,1.52-2.23,2.29-4,2.29-3.23,0-5.18-2.41-5.18-5.79ZM361.29,17.34c0-2.27-1.34-3.91-3.52-3.91s-3.45,1.64-3.45,3.91,1.27,3.93,3.45,3.93,3.52-1.61,3.52-3.93Z"/>
          <path class="cls-3" d="M365.79,17.38c0-3.48,2.2-5.88,5.43-5.88s5.23,2.18,5.23,5.48v.79l-8.59.02c.16,2.34,1.39,3.64,3.5,3.64,1.66,0,2.75-.68,3.11-1.95h2c-.54,2.39-2.41,3.73-5.16,3.73-3.27,0-5.52-2.36-5.52-5.82ZM367.9,16.36h6.41c0-1.84-1.2-3.07-3.09-3.07s-3.04,1.11-3.32,3.07Z"/>
        </g>
        <g>
          <path class="cls-2" d="M397.06,22.95v-8.91h-2.16v-2.32h2.16v-3.5h2.77v3.5h2.18v2.32h-2.18v8.91h-2.77Z"/>
          <path class="cls-2" d="M414.12,11.72v11.22h-2.57l-.2-1.5c-.68,1.07-2.14,1.79-3.64,1.79-2.59,0-4.11-1.75-4.11-4.5v-7.02h2.77v6.04c0,2.14.84,3,2.38,3,1.75,0,2.59-1.02,2.59-3.16v-5.88h2.77Z"/>
          <path class="cls-2" d="M418.53,19.54c.02.98.75,1.59,2.02,1.59s2-.52,2-1.34c0-.57-.29-.98-1.29-1.2l-2.02-.48c-2.02-.45-3-1.41-3-3.2,0-2.2,1.86-3.52,4.45-3.52s4.23,1.45,4.25,3.64h-2.63c-.02-.95-.66-1.57-1.73-1.57s-1.73.5-1.73,1.34c0,.64.5,1.05,1.45,1.27l2.02.48c1.89.43,2.84,1.29,2.84,3.02,0,2.27-1.93,3.68-4.7,3.68s-4.57-1.5-4.57-3.7h2.63Z"/>
          <path class="cls-2" d="M432.76,17.38c0-3.5,2.04-6,5.43-6,1.57,0,2.95.66,3.66,1.77v-7.11h2.75v16.9h-2.54l-.18-1.75c-.68,1.29-2.14,2.04-3.84,2.04-3.25,0-5.27-2.39-5.27-5.86ZM441.82,17.29c0-2.02-1.25-3.43-3.18-3.43s-3.11,1.43-3.11,3.43,1.18,3.41,3.11,3.41,3.18-1.39,3.18-3.41Z"/>
          <path class="cls-2" d="M446.98,19.74c0-2.07,1.5-3.36,4.16-3.57l3.36-.25v-.25c0-1.52-.91-2.14-2.32-2.14-1.64,0-2.54.68-2.54,1.86h-2.36c0-2.43,2-4.02,5.04-4.02s4.88,1.64,4.88,4.75v6.82h-2.43l-.2-1.66c-.48,1.16-2,1.95-3.75,1.95-2.39,0-3.84-1.39-3.84-3.5ZM454.53,18.4v-.59l-2.34.18c-1.73.16-2.39.73-2.39,1.64,0,1.02.68,1.52,1.93,1.52,1.7,0,2.79-1.02,2.79-2.75Z"/>
          <path class="cls-2" d="M460.82,22.95v-8.91h-2.16v-2.32h2.16v-3.5h2.77v3.5h2.18v2.32h-2.18v8.91h-2.77Z"/>
          <path class="cls-2" d="M472.73,11.41c3.48,0,6,2.41,6,5.91s-2.52,5.91-6,5.91-6-2.41-6-5.91,2.52-5.91,6-5.91ZM472.73,20.74c1.91,0,3.23-1.39,3.23-3.43s-1.32-3.43-3.23-3.43-3.23,1.39-3.23,3.43,1.32,3.43,3.23,3.43Z"/>
          <path class="cls-2" d="M482.71,19.54c.02.98.75,1.59,2.02,1.59s2-.52,2-1.34c0-.57-.29-.98-1.29-1.2l-2.02-.48c-2.02-.45-3-1.41-3-3.2,0-2.2,1.86-3.52,4.45-3.52s4.23,1.45,4.25,3.64h-2.63c-.02-.95-.66-1.57-1.73-1.57s-1.73.5-1.73,1.34c0,.64.5,1.05,1.45,1.27l2.02.48c1.89.43,2.84,1.29,2.84,3.02,0,2.27-1.93,3.68-4.7,3.68s-4.57-1.5-4.57-3.7h2.63Z"/>
        </g>
      </g>
      <polygon class="cls-2" points="333.48 46.21 158.03 46.21 158.03 27.9 159.03 27.9 159.03 45.21 332.48 45.21 332.48 30.74 333.48 30.74 333.48 46.21"/>
    </g>
  </g>
</svg>