<?xml version="1.0" encoding="UTF-8"?>
<svg id="Capa_2" xmlns="http://www.w3.org/2000/svg" viewBox="0 0 426.23 79.36">
  <defs>
    <style>
      .cls-1 {
        fill: #fafafa;
      }
    </style>
  </defs>
  <g id="Capa_1-2" data-name="Capa_1">
    <path class="cls-1" d="M21.8,13H0v65.03h21.8c23.3,0,33.88-16.5,33.88-31.86v-1.68c0-15.71-10.85-31.5-33.88-31.5ZM22.5,71.86h-5.92s-.09-.03-.14-.04c-8.25-2.39-9.5-19.62-9.67-26.3.17-6.67,1.42-23.91,9.67-26.3.05-.01.09-.03.14-.04h5.92c17.12,0,26.38,11.38,26.38,26.21s-9.09,26.47-26.38,26.47ZM122.13,13.27h46.94v6.09h-1.08c-3.92.05-17.27.66-19.04,6.74v51.59h-6.71V26.1c-1.76-6.08-15.12-6.69-19.04-6.74h-1.08v-6.09ZM264.92,12.74h-23.56v64.95h14.47v-18.44h9.09c16.32,0,26.21-8.65,26.21-22.5v-1.41c0-14.03-9.88-22.59-26.21-22.59ZM265.63,46.71h-9.79v-21.44h9.79c6.79,0,10.85,4.15,10.85,10.77s-4.06,10.68-10.85,10.68ZM400.02,12.74h-23.56v64.95h14.47v-18.44h9.09c16.32,0,26.21-8.65,26.21-22.5v-1.41c0-14.03-9.88-22.59-26.21-22.59ZM400.73,46.71h-9.79v-21.44h9.79c6.79,0,10.85,4.15,10.85,10.77s-4.06,10.68-10.85,10.68ZM343.38,39.31c0,4.45-3.61,8.06-8.06,8.06s-8.06-3.61-8.06-8.06,3.61-8.06,8.06-8.06,8.06,3.61,8.06,8.06ZM360.27,15.95c.27-.06.55-.13.82-.22.23-.07.45-.16.66-.25.04-.02.08-.04.13-.06,3.73-1.66,5.67-5.9,4.38-9.86-1.38-4.24-5.94-6.54-10.17-5.16-3.41,1.12-5.58,4.29-5.56,7.7,0,.52.05,1.05.16,1.58.53,4.28.16,5.25-1.77,5.4-.51.04-1.37-.14-2.04-.45,0,0,0,.01.01.02-4.48-2.09-9.75-3.32-15.79-3.32-22.68,0-34.33,17.03-34.33,33v1.94c0,14.47,11.03,33.09,34.33,33.09s34.41-18.62,34.41-33.09v-1.94c0-7.84-2.86-15.94-8.44-22.15,0,0,.01,0,.02,0-.21-.24-.33-.47-.48-.74-1.81-3.5.72-4.56,3.65-5.49ZM331.1,65.86c-12.18,0-19.68-9.18-19.68-20.47,0-8.39,3.66-15.09,10.03-18.37,2.74-1.41,5.98-2.19,9.65-2.19,2.14,0,4.13.26,5.97.76,4.39,1.19,7.89,3.73,10.26,7.24,1.62,2.4,2.71,5.24,3.22,8.42.21,1.32.32,2.7.32,4.13,0,11.29-7.59,20.47-19.77,20.47ZM205.52,13.27h-12l-23.74,64.42h6.71l5.37-14.65c2.63-4.89,13.52-5.68,17.89-5.79,4.32.11,15.01.88,17.8,5.62l5.62,14.83h6.88l-24.53-64.42ZM199.63,47.37c-4.45,0-8.06-3.61-8.06-8.06s3.61-8.06,8.06-8.06,8.06,3.61,8.06,8.06-3.61,8.06-8.06,8.06ZM96.89,13.27h-12l-23.74,64.42h6.71l5.37-14.65c2.63-4.9,13.52-5.68,17.89-5.79,4.32.11,15,.88,17.8,5.62l5.62,14.83h6.88L96.89,13.27ZM91.02,47.37c-4.45,0-8.06-3.61-8.06-8.06s3.61-8.06,8.06-8.06,8.06,3.61,8.06,8.06-3.61,8.06-8.06,8.06Z"/>
  </g>
</svg>