<?xml version="1.0" encoding="UTF-8"?>
<svg id="Capa_2" xmlns="http://www.w3.org/2000/svg" viewBox="0 0 22.01 25">
  <defs>
    <style>
      .cls-1 {
        fill: #1123cc;
      }
    </style>
  </defs>
  <g id="Capa_1-2" data-name="Capa_1">
    <g>
      <path class="cls-1" d="M12.14,9.84c-1.4,0-2.54,1.14-2.54,2.54s1.14,2.54,2.54,2.54,2.54-1.14,2.54-2.54-1.14-2.54-2.54-2.54Z"/>
      <path class="cls-1" d="M20,5.02c.09-.02.17-.04.26-.07.07-.02.14-.05.21-.08.01,0,.03-.01.04-.02,1.17-.52,1.79-1.86,1.38-3.11-.44-1.33-1.87-2.06-3.2-1.62-1.07.35-1.76,1.35-1.75,2.42,0,.16.02.33.05.5.17,1.35.05,1.65-.56,1.7-.16.01-.43-.04-.64-.14,0,0,0,0,0,0-1.41-.66-3.07-1.05-4.97-1.05C3.67,3.57,0,8.93,0,13.96v.61c0,4.56,3.47,10.42,10.81,10.42s10.84-5.86,10.84-10.42v-.61c0-2.47-.9-5.02-2.66-6.98,0,0,0,0,0,0-.07-.07-.11-.15-.15-.23-.57-1.1.23-1.44,1.15-1.73ZM10.81,20.74c-3.84,0-6.2-2.89-6.2-6.45,0-2.64,1.15-4.75,3.16-5.79.86-.44,1.88-.69,3.04-.69.67,0,1.3.08,1.88.24,1.38.38,2.48,1.18,3.23,2.28.51.75.86,1.65,1.01,2.65.07.42.1.85.1,1.3,0,3.56-2.39,6.45-6.23,6.45Z"/>
    </g>
  </g>
</svg>